<mxfile host="app.diagrams.net" agent="Mozilla/5.0 (X11; Linux x86_64; rv:131.0) Gecko/20100101 Firefox/131.0" version="24.8.0">
  <diagram name="Pagina-1" id="-u4X870vsIt6SF9FVPmv">
    <mxGraphModel dx="926" dy="1036" grid="1" gridSize="10" guides="1" tooltips="1" connect="1" arrows="1" fold="1" page="1" pageScale="1" pageWidth="827" pageHeight="1169" math="0" shadow="0">
      <root>
        <mxCell id="0" />
        <mxCell id="1" parent="0" />
        <mxCell id="6aUkPRsYZK9zB7-h0i2S-131" value="Account" style="swimlane;childLayout=stackLayout;horizontal=1;startSize=50;horizontalStack=0;rounded=1;fontSize=14;fontStyle=0;strokeWidth=2;resizeParent=0;resizeLast=1;shadow=0;dashed=0;align=center;arcSize=4;whiteSpace=wrap;html=1;" parent="1" vertex="1">
          <mxGeometry x="1488.25" y="190" width="130" height="130" as="geometry">
            <mxRectangle x="120" y="300" width="70" height="50" as="alternateBounds" />
          </mxGeometry>
        </mxCell>
        <mxCell id="6aUkPRsYZK9zB7-h0i2S-132" value="&lt;div&gt;user_id&lt;/div&gt;&lt;div&gt;user_uuid&lt;/div&gt;&lt;div&gt;username&lt;/div&gt;&lt;div&gt;password_hash&lt;/div&gt;&lt;div&gt;wallet&lt;br&gt;&lt;/div&gt;&lt;div&gt;&lt;br&gt;&lt;/div&gt;" style="align=left;strokeColor=none;fillColor=none;spacingLeft=4;fontSize=12;verticalAlign=top;resizable=0;rotatable=0;part=1;html=1;" parent="6aUkPRsYZK9zB7-h0i2S-131" vertex="1">
          <mxGeometry y="50" width="130" height="80" as="geometry" />
        </mxCell>
        <mxCell id="6aUkPRsYZK9zB7-h0i2S-134" value="N" style="text;html=1;align=center;verticalAlign=middle;resizable=0;points=[];autosize=1;strokeColor=none;fillColor=none;fontSize=15;" parent="1" vertex="1">
          <mxGeometry x="1458.25" y="226" width="30" height="30" as="geometry" />
        </mxCell>
        <mxCell id="6aUkPRsYZK9zB7-h0i2S-141" style="edgeStyle=orthogonalEdgeStyle;rounded=0;orthogonalLoop=1;jettySize=auto;html=1;exitX=0.5;exitY=0;exitDx=0;exitDy=0;entryX=0.5;entryY=0;entryDx=0;entryDy=0;endArrow=none;endFill=0;" parent="1" source="6aUkPRsYZK9zB7-h0i2S-144" target="6aUkPRsYZK9zB7-h0i2S-146" edge="1">
          <mxGeometry relative="1" as="geometry">
            <mxPoint x="1305" y="398.5" as="targetPoint" />
          </mxGeometry>
        </mxCell>
        <mxCell id="6aUkPRsYZK9zB7-h0i2S-142" value="N" style="text;html=1;align=center;verticalAlign=middle;resizable=0;points=[];autosize=1;strokeColor=none;fillColor=none;fontSize=15;" parent="1" vertex="1">
          <mxGeometry x="1285" y="328.5" width="30" height="30" as="geometry" />
        </mxCell>
        <mxCell id="6aUkPRsYZK9zB7-h0i2S-143" value="N" style="text;html=1;align=center;verticalAlign=middle;resizable=0;points=[];autosize=1;strokeColor=none;fillColor=none;fontSize=15;" parent="1" vertex="1">
          <mxGeometry x="1285" y="478.5" width="30" height="30" as="geometry" />
        </mxCell>
        <mxCell id="6aUkPRsYZK9zB7-h0i2S-162" style="edgeStyle=orthogonalEdgeStyle;rounded=0;orthogonalLoop=1;jettySize=auto;html=1;exitX=0.5;exitY=1;exitDx=0;exitDy=0;entryX=0.5;entryY=1;entryDx=0;entryDy=0;endArrow=none;endFill=0;" parent="1" source="6aUkPRsYZK9zB7-h0i2S-144" target="6aUkPRsYZK9zB7-h0i2S-160" edge="1">
          <mxGeometry relative="1" as="geometry" />
        </mxCell>
        <mxCell id="6aUkPRsYZK9zB7-h0i2S-144" value="Gacha" style="swimlane;childLayout=stackLayout;horizontal=1;startSize=50;horizontalStack=0;rounded=1;fontSize=14;fontStyle=0;strokeWidth=2;resizeParent=0;resizeLast=1;shadow=0;dashed=0;align=center;arcSize=4;whiteSpace=wrap;html=1;" parent="1" vertex="1">
          <mxGeometry x="1250" y="358.5" width="130" height="120" as="geometry">
            <mxRectangle x="120" y="300" width="70" height="50" as="alternateBounds" />
          </mxGeometry>
        </mxCell>
        <mxCell id="6aUkPRsYZK9zB7-h0i2S-145" value="&lt;div&gt;gacha_id&lt;/div&gt;&lt;div&gt;gacha_uuid&lt;/div&gt;&lt;div&gt;rarity&lt;/div&gt;&lt;div&gt;image_path&lt;br&gt;&lt;/div&gt;" style="align=left;strokeColor=none;fillColor=none;spacingLeft=4;fontSize=12;verticalAlign=top;resizable=0;rotatable=0;part=1;html=1;" parent="6aUkPRsYZK9zB7-h0i2S-144" vertex="1">
          <mxGeometry y="50" width="130" height="70" as="geometry" />
        </mxCell>
        <mxCell id="6aUkPRsYZK9zB7-h0i2S-183" style="edgeStyle=orthogonalEdgeStyle;rounded=0;orthogonalLoop=1;jettySize=auto;html=1;exitX=0;exitY=0.5;exitDx=0;exitDy=0;entryX=0;entryY=0.5;entryDx=0;entryDy=0;endArrow=none;endFill=0;" parent="1" source="6aUkPRsYZK9zB7-h0i2S-146" target="6aUkPRsYZK9zB7-h0i2S-131" edge="1">
          <mxGeometry relative="1" as="geometry" />
        </mxCell>
        <mxCell id="6aUkPRsYZK9zB7-h0i2S-146" value="" style="shape=rhombus;perimeter=rhombusPerimeter;whiteSpace=wrap;html=1;align=center;direction=west;" parent="1" vertex="1">
          <mxGeometry x="1275" y="225" width="80" height="60" as="geometry" />
        </mxCell>
        <mxCell id="6aUkPRsYZK9zB7-h0i2S-148" value="Transaction" style="swimlane;childLayout=stackLayout;horizontal=1;startSize=50;horizontalStack=0;rounded=1;fontSize=14;fontStyle=0;strokeWidth=2;resizeParent=0;resizeLast=1;shadow=0;dashed=0;align=center;arcSize=4;whiteSpace=wrap;html=1;" parent="1" vertex="1">
          <mxGeometry x="1740" y="351.5" width="135" height="125.5" as="geometry" />
        </mxCell>
        <mxCell id="6aUkPRsYZK9zB7-h0i2S-149" value="&lt;div&gt;transaction_id&lt;/div&gt;&lt;div&gt;transaction_uuid&lt;/div&gt;&lt;div&gt;price&lt;br&gt;&lt;/div&gt;" style="align=left;strokeColor=none;fillColor=none;spacingLeft=4;fontSize=12;verticalAlign=top;resizable=0;rotatable=0;part=1;html=1;" parent="6aUkPRsYZK9zB7-h0i2S-148" vertex="1">
          <mxGeometry y="50" width="135" height="75.5" as="geometry" />
        </mxCell>
        <mxCell id="6aUkPRsYZK9zB7-h0i2S-150" value="&lt;div style=&quot;font-size: 15px;&quot;&gt;1&lt;/div&gt;" style="text;html=1;align=center;verticalAlign=middle;resizable=0;points=[];autosize=1;strokeColor=none;fillColor=none;fontSize=15;" parent="1" vertex="1">
          <mxGeometry x="1808" y="476" width="30" height="30" as="geometry" />
        </mxCell>
        <mxCell id="6aUkPRsYZK9zB7-h0i2S-151" value="1" style="text;html=1;align=center;verticalAlign=middle;resizable=0;points=[];autosize=1;strokeColor=none;fillColor=none;fontSize=15;" parent="1" vertex="1">
          <mxGeometry x="1808.5" y="321.5" width="30" height="30" as="geometry" />
        </mxCell>
        <mxCell id="6aUkPRsYZK9zB7-h0i2S-154" style="edgeStyle=orthogonalEdgeStyle;rounded=0;orthogonalLoop=1;jettySize=auto;html=1;exitX=0.5;exitY=0;exitDx=0;exitDy=0;entryX=0.5;entryY=0;entryDx=0;entryDy=0;endArrow=none;endFill=0;" parent="1" source="6aUkPRsYZK9zB7-h0i2S-152" target="6aUkPRsYZK9zB7-h0i2S-148" edge="1">
          <mxGeometry relative="1" as="geometry" />
        </mxCell>
        <mxCell id="6aUkPRsYZK9zB7-h0i2S-184" style="edgeStyle=orthogonalEdgeStyle;rounded=0;orthogonalLoop=1;jettySize=auto;html=1;exitX=1;exitY=0.5;exitDx=0;exitDy=0;entryX=1;entryY=0.5;entryDx=0;entryDy=0;endArrow=none;endFill=0;" parent="1" source="6aUkPRsYZK9zB7-h0i2S-152" target="6aUkPRsYZK9zB7-h0i2S-131" edge="1">
          <mxGeometry relative="1" as="geometry" />
        </mxCell>
        <mxCell id="6aUkPRsYZK9zB7-h0i2S-152" value="" style="shape=rhombus;perimeter=rhombusPerimeter;whiteSpace=wrap;html=1;align=center;direction=west;" parent="1" vertex="1">
          <mxGeometry x="1767.5" y="225" width="80" height="60" as="geometry" />
        </mxCell>
        <mxCell id="6aUkPRsYZK9zB7-h0i2S-157" value="Auction" style="swimlane;childLayout=stackLayout;horizontal=1;startSize=50;horizontalStack=0;rounded=1;fontSize=14;fontStyle=0;strokeWidth=2;resizeParent=0;resizeLast=1;shadow=0;dashed=0;align=center;arcSize=4;whiteSpace=wrap;html=1;" parent="1" vertex="1">
          <mxGeometry x="1491.5" y="526.5" width="126.5" height="135" as="geometry" />
        </mxCell>
        <mxCell id="6aUkPRsYZK9zB7-h0i2S-158" value="&lt;div&gt;auction_id&lt;/div&gt;&lt;div&gt;auction_uuid&lt;/div&gt;&lt;div&gt;base_price&lt;/div&gt;&lt;div&gt;expire&lt;br&gt;&lt;/div&gt;" style="align=left;strokeColor=none;fillColor=none;spacingLeft=4;fontSize=12;verticalAlign=top;resizable=0;rotatable=0;part=1;html=1;" parent="6aUkPRsYZK9zB7-h0i2S-157" vertex="1">
          <mxGeometry y="50" width="126.5" height="85" as="geometry" />
        </mxCell>
        <mxCell id="6aUkPRsYZK9zB7-h0i2S-159" value="1" style="text;html=1;align=center;verticalAlign=middle;resizable=0;points=[];autosize=1;strokeColor=none;fillColor=none;fontSize=15;" parent="1" vertex="1">
          <mxGeometry x="1461.5" y="597" width="30" height="30" as="geometry" />
        </mxCell>
        <mxCell id="6aUkPRsYZK9zB7-h0i2S-163" style="edgeStyle=orthogonalEdgeStyle;rounded=0;orthogonalLoop=1;jettySize=auto;html=1;exitX=0;exitY=0.5;exitDx=0;exitDy=0;entryX=0;entryY=0.25;entryDx=0;entryDy=0;endArrow=none;endFill=0;" parent="1" source="6aUkPRsYZK9zB7-h0i2S-160" target="6aUkPRsYZK9zB7-h0i2S-158" edge="1">
          <mxGeometry relative="1" as="geometry" />
        </mxCell>
        <mxCell id="6aUkPRsYZK9zB7-h0i2S-160" value="" style="shape=rhombus;perimeter=rhombusPerimeter;whiteSpace=wrap;html=1;align=center;direction=west;" parent="1" vertex="1">
          <mxGeometry x="1275" y="567" width="80" height="60" as="geometry" />
        </mxCell>
        <mxCell id="6aUkPRsYZK9zB7-h0i2S-164" style="edgeStyle=orthogonalEdgeStyle;rounded=0;orthogonalLoop=1;jettySize=auto;html=1;exitX=1;exitY=0.5;exitDx=0;exitDy=0;entryX=1;entryY=0.25;entryDx=0;entryDy=0;endArrow=none;endFill=0;" parent="1" source="6aUkPRsYZK9zB7-h0i2S-161" target="6aUkPRsYZK9zB7-h0i2S-158" edge="1">
          <mxGeometry relative="1" as="geometry" />
        </mxCell>
        <mxCell id="6aUkPRsYZK9zB7-h0i2S-165" style="edgeStyle=orthogonalEdgeStyle;rounded=0;orthogonalLoop=1;jettySize=auto;html=1;exitX=0.5;exitY=1;exitDx=0;exitDy=0;entryX=0.5;entryY=1;entryDx=0;entryDy=0;endArrow=none;endFill=0;" parent="1" source="6aUkPRsYZK9zB7-h0i2S-161" target="6aUkPRsYZK9zB7-h0i2S-149" edge="1">
          <mxGeometry relative="1" as="geometry" />
        </mxCell>
        <mxCell id="6aUkPRsYZK9zB7-h0i2S-161" value="" style="shape=rhombus;perimeter=rhombusPerimeter;whiteSpace=wrap;html=1;align=center;direction=west;" parent="1" vertex="1">
          <mxGeometry x="1767.5" y="568.5" width="80" height="60" as="geometry" />
        </mxCell>
        <mxCell id="6aUkPRsYZK9zB7-h0i2S-166" value="1" style="text;html=1;align=center;verticalAlign=middle;resizable=0;points=[];autosize=1;strokeColor=none;fillColor=none;fontSize=15;" parent="1" vertex="1">
          <mxGeometry x="1618" y="598.5" width="30" height="30" as="geometry" />
        </mxCell>
        <mxCell id="6aUkPRsYZK9zB7-h0i2S-167" value="Admin" style="swimlane;childLayout=stackLayout;horizontal=1;startSize=50;horizontalStack=0;rounded=1;fontSize=14;fontStyle=0;strokeWidth=2;resizeParent=0;resizeLast=1;shadow=0;dashed=0;align=center;arcSize=4;whiteSpace=wrap;html=1;" parent="1" vertex="1">
          <mxGeometry x="1930" y="354" width="160" height="120" as="geometry" />
        </mxCell>
        <mxCell id="6aUkPRsYZK9zB7-h0i2S-168" value="&lt;div&gt;admin_id&lt;/div&gt;&lt;div&gt;username&lt;/div&gt;&lt;div&gt;password_hash&lt;br&gt;&lt;/div&gt;" style="align=left;strokeColor=none;fillColor=none;spacingLeft=4;fontSize=12;verticalAlign=top;resizable=0;rotatable=0;part=1;html=1;" parent="6aUkPRsYZK9zB7-h0i2S-167" vertex="1">
          <mxGeometry y="50" width="160" height="70" as="geometry" />
        </mxCell>
        <mxCell id="6aUkPRsYZK9zB7-h0i2S-169" style="edgeStyle=orthogonalEdgeStyle;rounded=0;orthogonalLoop=1;jettySize=auto;html=1;exitX=0.25;exitY=1;exitDx=0;exitDy=0;entryX=0.5;entryY=1;entryDx=0;entryDy=0;endArrow=none;endFill=0;" parent="1" source="6aUkPRsYZK9zB7-h0i2S-132" target="6aUkPRsYZK9zB7-h0i2S-170" edge="1">
          <mxGeometry relative="1" as="geometry">
            <mxPoint x="1459" y="428.5" as="sourcePoint" />
          </mxGeometry>
        </mxCell>
        <mxCell id="6aUkPRsYZK9zB7-h0i2S-170" value="create" style="shape=rhombus;perimeter=rhombusPerimeter;whiteSpace=wrap;html=1;align=center;direction=west;" parent="1" vertex="1">
          <mxGeometry x="1430" y="388.5" width="80" height="60" as="geometry" />
        </mxCell>
        <mxCell id="6aUkPRsYZK9zB7-h0i2S-171" value="N" style="text;html=1;align=center;verticalAlign=middle;resizable=0;points=[];autosize=1;strokeColor=none;fillColor=none;fontSize=15;" parent="1" vertex="1">
          <mxGeometry x="1491.5" y="320" width="30" height="30" as="geometry" />
        </mxCell>
        <mxCell id="6aUkPRsYZK9zB7-h0i2S-172" value="1" style="text;html=1;align=center;verticalAlign=middle;resizable=0;points=[];autosize=1;strokeColor=none;fillColor=none;fontSize=15;" parent="1" vertex="1">
          <mxGeometry x="1491.5" y="496.5" width="30" height="30" as="geometry" />
        </mxCell>
        <mxCell id="6aUkPRsYZK9zB7-h0i2S-173" style="edgeStyle=orthogonalEdgeStyle;rounded=0;orthogonalLoop=1;jettySize=auto;html=1;exitX=0.25;exitY=0;exitDx=0;exitDy=0;entryX=0.5;entryY=0;entryDx=0;entryDy=0;endArrow=none;endFill=0;" parent="1" source="6aUkPRsYZK9zB7-h0i2S-157" target="6aUkPRsYZK9zB7-h0i2S-170" edge="1">
          <mxGeometry relative="1" as="geometry">
            <mxPoint x="1636" y="436.5" as="sourcePoint" />
            <Array as="points">
              <mxPoint x="1522" y="477" />
              <mxPoint x="1470" y="477" />
            </Array>
          </mxGeometry>
        </mxCell>
        <mxCell id="6aUkPRsYZK9zB7-h0i2S-174" style="edgeStyle=orthogonalEdgeStyle;rounded=0;orthogonalLoop=1;jettySize=auto;html=1;exitX=0.75;exitY=1;exitDx=0;exitDy=0;entryX=0.5;entryY=1;entryDx=0;entryDy=0;endArrow=none;endFill=0;" parent="1" source="6aUkPRsYZK9zB7-h0i2S-132" target="6aUkPRsYZK9zB7-h0i2S-177" edge="1">
          <mxGeometry relative="1" as="geometry">
            <mxPoint x="1619.5" y="497" as="sourcePoint" />
            <mxPoint x="1668.5" y="521.9999999999999" as="targetPoint" />
          </mxGeometry>
        </mxCell>
        <mxCell id="6aUkPRsYZK9zB7-h0i2S-175" style="edgeStyle=orthogonalEdgeStyle;rounded=0;orthogonalLoop=1;jettySize=auto;html=1;exitX=0.75;exitY=0;exitDx=0;exitDy=0;entryX=0.5;entryY=0;entryDx=0;entryDy=0;endArrow=none;endFill=0;" parent="1" source="6aUkPRsYZK9zB7-h0i2S-157" target="6aUkPRsYZK9zB7-h0i2S-177" edge="1">
          <mxGeometry relative="1" as="geometry">
            <mxPoint x="1796.5" y="505" as="sourcePoint" />
            <mxPoint x="1748.5" y="521.9999999999999" as="targetPoint" />
            <Array as="points">
              <mxPoint x="1585" y="477" />
              <mxPoint x="1630" y="477" />
            </Array>
          </mxGeometry>
        </mxCell>
        <mxCell id="6aUkPRsYZK9zB7-h0i2S-176" value="N" style="text;html=1;align=center;verticalAlign=middle;resizable=0;points=[];autosize=1;strokeColor=none;fillColor=none;fontSize=15;" parent="1" vertex="1">
          <mxGeometry x="1585" y="320" width="30" height="30" as="geometry" />
        </mxCell>
        <mxCell id="6aUkPRsYZK9zB7-h0i2S-177" value="bid" style="shape=rhombus;perimeter=rhombusPerimeter;whiteSpace=wrap;html=1;align=center;direction=west;" parent="1" vertex="1">
          <mxGeometry x="1590" y="388.5" width="80" height="60" as="geometry" />
        </mxCell>
        <mxCell id="6aUkPRsYZK9zB7-h0i2S-178" value="N" style="text;html=1;align=center;verticalAlign=middle;resizable=0;points=[];autosize=1;strokeColor=none;fillColor=none;fontSize=15;" parent="1" vertex="1">
          <mxGeometry x="1585" y="495.5" width="30" height="30" as="geometry" />
        </mxCell>
        <mxCell id="6aUkPRsYZK9zB7-h0i2S-179" value="" style="endArrow=oval;html=1;rounded=0;exitX=0;exitY=0;exitDx=0;exitDy=0;endFill=1;strokeWidth=1;endSize=4;" parent="1" source="6aUkPRsYZK9zB7-h0i2S-177" edge="1">
          <mxGeometry width="50" height="50" relative="1" as="geometry">
            <mxPoint x="1709.5" y="567" as="sourcePoint" />
            <mxPoint x="1660" y="457" as="targetPoint" />
            <Array as="points" />
          </mxGeometry>
        </mxCell>
        <mxCell id="6aUkPRsYZK9zB7-h0i2S-180" value="amount" style="text;html=1;align=center;verticalAlign=middle;resizable=0;points=[];autosize=1;strokeColor=none;fillColor=none;fontSize=13;" parent="1" vertex="1">
          <mxGeometry x="1630" y="457" width="70" height="30" as="geometry" />
        </mxCell>
        <mxCell id="6aUkPRsYZK9zB7-h0i2S-186" value="N" style="text;html=1;align=center;verticalAlign=middle;resizable=0;points=[];autosize=1;strokeColor=none;fillColor=none;fontSize=15;" parent="1" vertex="1">
          <mxGeometry x="1618" y="225" width="30" height="30" as="geometry" />
        </mxCell>
        <mxCell id="QQRLBg8VsE2Zkr5Ds0mI-5" style="edgeStyle=orthogonalEdgeStyle;rounded=0;orthogonalLoop=1;jettySize=auto;html=1;exitX=0;exitY=0.5;exitDx=0;exitDy=0;entryX=0;entryY=0.25;entryDx=0;entryDy=0;endArrow=none;endFill=0;" edge="1" parent="1" source="QQRLBg8VsE2Zkr5Ds0mI-1" target="6aUkPRsYZK9zB7-h0i2S-145">
          <mxGeometry relative="1" as="geometry" />
        </mxCell>
        <mxCell id="QQRLBg8VsE2Zkr5Ds0mI-6" style="edgeStyle=orthogonalEdgeStyle;rounded=0;orthogonalLoop=1;jettySize=auto;html=1;exitX=1;exitY=0.5;exitDx=0;exitDy=0;entryX=1;entryY=0.25;entryDx=0;entryDy=0;endArrow=none;endFill=0;" edge="1" parent="1" source="QQRLBg8VsE2Zkr5Ds0mI-1" target="QQRLBg8VsE2Zkr5Ds0mI-3">
          <mxGeometry relative="1" as="geometry" />
        </mxCell>
        <mxCell id="QQRLBg8VsE2Zkr5Ds0mI-1" value="" style="shape=rhombus;perimeter=rhombusPerimeter;whiteSpace=wrap;html=1;align=center;direction=west;" vertex="1" parent="1">
          <mxGeometry x="1140" y="397" width="80" height="60" as="geometry" />
        </mxCell>
        <mxCell id="QQRLBg8VsE2Zkr5Ds0mI-2" value="Rarity" style="swimlane;childLayout=stackLayout;horizontal=1;startSize=50;horizontalStack=0;rounded=1;fontSize=14;fontStyle=0;strokeWidth=2;resizeParent=0;resizeLast=1;shadow=0;dashed=0;align=center;arcSize=4;whiteSpace=wrap;html=1;" vertex="1" parent="1">
          <mxGeometry x="990" y="358.5" width="120" height="120" as="geometry" />
        </mxCell>
        <mxCell id="QQRLBg8VsE2Zkr5Ds0mI-3" value="&lt;div&gt;rarity_id&lt;/div&gt;&lt;div&gt;name&lt;br&gt;&lt;/div&gt;" style="align=left;strokeColor=none;fillColor=none;spacingLeft=4;fontSize=12;verticalAlign=top;resizable=0;rotatable=0;part=1;html=1;" vertex="1" parent="QQRLBg8VsE2Zkr5Ds0mI-2">
          <mxGeometry y="50" width="120" height="70" as="geometry" />
        </mxCell>
        <mxCell id="QQRLBg8VsE2Zkr5Ds0mI-7" value="1" style="text;html=1;align=center;verticalAlign=middle;resizable=0;points=[];autosize=1;strokeColor=none;fillColor=none;fontSize=15;" vertex="1" parent="1">
          <mxGeometry x="1220" y="397" width="30" height="30" as="geometry" />
        </mxCell>
        <mxCell id="QQRLBg8VsE2Zkr5Ds0mI-8" value="N" style="text;html=1;align=center;verticalAlign=middle;resizable=0;points=[];autosize=1;strokeColor=none;fillColor=none;fontSize=15;" vertex="1" parent="1">
          <mxGeometry x="1110" y="397" width="30" height="30" as="geometry" />
        </mxCell>
      </root>
    </mxGraphModel>
  </diagram>
</mxfile>
